<svg xmlns="http://www.w3.org/2000/svg" width="129.75" height="129.75" viewBox="0 0 129.75 129.75"><path d="M19.26 60.82a11.367 11.367 0 007.907-3.193l11.176 5.6a12.9 12.9 0 00-.1 1.419 11.4 11.4 0 1021.693-4.916l15.203-15.204a11.4 11.4 0 0016.32-10.289 10.981 10.981 0 00-.532-3.421l13.2-9.909a11.246 11.246 0 006.31 1.926A11.417 11.417 0 1099.087 11.4a10.981 10.981 0 00.532 3.421l-13.2 9.909a11.246 11.246 0 00-6.31-1.926 11.4 11.4 0 00-10.289 16.32L54.608 54.333a11.389 11.389 0 00-12.823 2.078l-11.176-5.6a12.9 12.9 0 00.1-1.419A11.4 11.4 0 1019.26 60.82zM110.491 7.6a3.8 3.8 0 11-3.8 3.8 3.8 3.8 0 013.8-3.8zM80.08 30.41a3.8 3.8 0 11-3.8 3.8 3.8 3.8 0 013.8-3.8zM49.67 60.82a3.8 3.8 0 11-3.8 3.8 3.8 3.8 0 013.8-3.8zM19.26 45.615a3.8 3.8 0 11-3.8 3.8 3.8 3.8 0 013.8-3.8zm0 0" fill="#ffaa4d"/><path d="M125.949 122.148h-4.055V41.813a3.8 3.8 0 00-3.8-3.8h-15.206a3.8 3.8 0 00-3.8 3.8v80.333h-7.6V64.622a3.8 3.8 0 00-3.8-3.8h-15.21a3.8 3.8 0 00-3.8 3.8v57.526h-7.6V95.032a3.8 3.8 0 00-3.8-3.8H42.067a3.8 3.8 0 00-3.8 3.8v27.116h-7.6V79.827a3.8 3.8 0 00-3.8-3.8h-15.21a3.8 3.8 0 00-3.8 3.8v42.321H3.8a3.8 3.8 0 100 7.6h122.149a3.8 3.8 0 000-7.6zm-19.26-76.535h7.6v76.532h-7.6zm-30.41 22.81h7.6v53.725h-7.6zm-30.41 30.41h7.6v23.314h-7.6zm-30.41-15.205h7.6v38.52h-7.6zm0 0"/></svg>