<svg xmlns="http://www.w3.org/2000/svg" width="1104.55" height="1178.187" viewBox="0 0 1104.55 1178.187"><g opacity=".068" fill="#005167"><path d="M449.874 138.069h-1.15a103.425 103.425 0 00-97.511 69.034l-6.041 117.934v164.244a106.164 106.164 0 00-34.517-6.04 103.486 103.486 0 00-103.552 103.552v218.9a170.526 170.526 0 0050.625 121.961c18.122 23.3 87.444 64.144 87.444 159.066v56.949a34.619 34.619 0 0034.517 34.517H862.93a34.619 34.619 0 0034.517-34.517v-77.375c0-64.72 27.9-112.181 29.052-115.057a381.345 381.345 0 0039.982-169.71V517.758A103.671 103.671 0 00862.93 414.207a105.2 105.2 0 00-38.257 7.191 103.4 103.4 0 00-168.847-49.762 103.538 103.538 0 00-69.034-26.467 99.045 99.045 0 00-34.517 6.04v-40.554l-6.041-103.552a103.747 103.747 0 00-96.36-69.034zm102.4 310.655a34.517 34.517 0 0169.034 0v138.069a34.517 34.517 0 1069.034 0V448.724a34.517 34.517 0 0169.034 0v207.1a34.517 34.517 0 0069.034 0V517.758a34.517 34.517 0 1169.034 0v263.769a310.32 310.32 0 01-32.788 138.932c-1.726 4.6-36.243 61.843-36.243 145.835v42.859h-414.21v-22.436c0-128.289-92.046-186.968-107.866-207.678a102.628 102.628 0 01-30.2-73.349v-218.9a34.517 34.517 0 0169.034 0v138.071a34.517 34.517 0 1069.034 0v-483.24a34.727 34.727 0 0133.079-34.517l11.793 1.438a34.447 34.447 0 0124.162 33.079v345.172a34.517 34.517 0 1069.034 0z"/><path d="M1001 138.069a103.466 103.466 0 00-92.621 57.241L679.7 166.833l-58.967-7.479C613.831 70.185 539.331 0 448.724 0c-95.21 0-172.586 77.376-172.586 172.586a173.392 173.392 0 009.78 57.241l-116.5 69.9a103.6 103.6 0 1037.682 79.962 97.3 97.3 0 00-2.013-20.71l116.5-69.9a187.5 187.5 0 0023.587 21.573v14.382l6.038-117.934a106.16 106.16 0 01-6.041-34.517 103.552 103.552 0 01207.1 0 100.226 100.226 0 01-6.041 34.517l6.041 103.552a172.328 172.328 0 0059.83-82.841L670.5 235l229.252 28.764A103.594 103.594 0 101001 138.069zM103.552 414.206a34.517 34.517 0 1134.517-34.517 34.619 34.619 0 01-34.517 34.517zM1001 276.138a34.517 34.517 0 1134.517-34.517A34.619 34.619 0 011001 276.138z"/></g></svg>