<?xml version="1.0" standalone="no"?>
<!DOCTYPE svg PUBLIC "-//W3C//DTD SVG 20010904//EN"
 "http://www.w3.org/TR/2001/REC-SVG-20010904/DTD/svg10.dtd">
<svg version="1.0" xmlns="http://www.w3.org/2000/svg"
 width="424.000000pt" height="424.000000pt" viewBox="0 0 424.000000 424.000000"
 preserveAspectRatio="xMidYMid meet">
<metadata>
Created by potrace 1.11, written by Peter Selinger 2001-2013
</metadata>
<g transform="translate(0.000000,424.000000) scale(0.100000,-0.100000)"
fill="#000000" stroke="none">
<path d="M418 4235 c-2 -1 -30 -5 -63 -9 -145 -15 -271 -119 -331 -271 -19
-49 -19 -92 -20 -1814 0 -971 3 -1785 8 -1809 28 -154 159 -287 315 -320 40
-9 136 -8 179 1 35 9 92 35 131 61 21 15 363 351 760 748 l722 721 719 -720
c396 -396 735 -731 754 -744 177 -132 442 -85 568 102 80 116 74 -39 76 1942
1 972 -1 1767 -5 1767 -4 0 -8 11 -9 25 -4 50 -56 140 -112 196 -121 121 -293
153 -452 83 -59 -26 -114 -78 -803 -765 l-740 -737 -734 734 c-789 789 -769
771 -901 799 -33 7 -61 11 -62 10z m764 -1755 c198 -199 359 -363 357 -365
-41 -45 -715 -715 -719 -715 -3 0 -5 324 -5 720 0 396 2 720 3 720 2 0 166
-162 364 -360z m2238 -366 l0 -727 -360 361 c-198 198 -360 363 -360 368 0 7
710 724 717 724 2 0 3 -327 3 -726z"/>
</g>
</svg>
