<svg xmlns="http://www.w3.org/2000/svg" width="122.109" height="130.25" viewBox="0 0 122.109 130.25"><path d="M49.735 15.264h-.127a11.434 11.434 0 00-10.78 7.632l-.668 13.038v18.157a11.736 11.736 0 00-3.816-.668 11.441 11.441 0 00-11.448 11.448v24.2a18.852 18.852 0 005.6 13.483c2 2.576 9.667 7.091 9.667 17.585v6.3a3.827 3.827 0 003.816 3.816h53.417a3.827 3.827 0 003.816-3.816v-8.554a27.829 27.829 0 013.212-12.72 42.158 42.158 0 004.42-18.762V57.239a11.461 11.461 0 00-11.448-11.448 11.63 11.63 0 00-4.229.795 11.431 11.431 0 00-18.666-5.5 11.446 11.446 0 00-7.632-2.926 10.949 10.949 0 00-3.816.668v-4.484l-.668-11.448a11.469 11.469 0 00-10.65-7.632zm11.321 34.343a3.816 3.816 0 017.632 0v15.264a3.816 3.816 0 007.632 0V49.607a3.816 3.816 0 017.632 0v22.9a3.816 3.816 0 007.632 0V57.239a3.816 3.816 0 017.632 0v29.16a34.307 34.307 0 01-3.625 15.359 34.7 34.7 0 00-4.007 16.122v4.738H45.796v-2.48c0-14.182-10.176-20.67-11.925-22.959a11.346 11.346 0 01-3.339-8.109v-24.2a3.816 3.816 0 017.632 0v15.264a3.816 3.816 0 007.632 0V26.712a3.839 3.839 0 013.657-3.816l1.3.159a3.808 3.808 0 012.671 3.657v38.159a3.816 3.816 0 007.632 0z" fill="#ff9737"/><path d="M110.662 15.264a11.438 11.438 0 00-10.239 6.328l-25.28-3.148-6.519-.827a19.076 19.076 0 10-37.014 7.791l-12.88 7.727a11.453 11.453 0 104.166 8.84 10.757 10.757 0 00-.223-2.29l12.879-7.727a20.729 20.729 0 002.608 2.385v1.59l.667-13.033a11.736 11.736 0 01-.668-3.816 11.448 11.448 0 0122.9 0 11.08 11.08 0 01-.668 3.816l.668 11.448a19.051 19.051 0 006.614-9.158l6.455.795 25.344 3.18a11.452 11.452 0 1011.193-13.9zM11.448 45.791a3.816 3.816 0 113.816-3.816 3.827 3.827 0 01-3.816 3.816zm99.214-15.264a3.816 3.816 0 113.816-3.816 3.827 3.827 0 01-3.816 3.816z"/></svg>