<svg xmlns="http://www.w3.org/2000/svg" width="120.344" height="129.75" viewBox="0 0 120.344 129.75"><path d="M86.5 44.19h-5.641V27.619C80.859 12.387 68.189 0 52.652 0S24.446 12.387 24.446 27.619V44.19H18.8A18.829 18.829 0 000 62.995v47.951a18.829 18.829 0 0018.8 18.8h37.143a4.7 4.7 0 000-9.4H18.8a9.4 9.4 0 01-9.4-9.4V62.995a9.4 9.4 0 019.4-9.4h67.7a9.4 9.4 0 019.4 9.4V81.8a4.7 4.7 0 109.4 0V63a18.829 18.829 0 00-18.8-18.81zm-15.043 0H33.848V27.619c0-10.037 8.438-18.217 18.8-18.217s18.8 8.18 18.8 18.217z"/><path d="M118.374 85.959a4.7 4.7 0 00-6.558 1.081L88.64 119.407a2.695 2.695 0 01-3.878.188l-8.18-7.874A4.704 4.704 0 1070 118.444l8.2 7.921.047.047a12.136 12.136 0 008.344 3.338c.259 0 .541 0 .8-.024a12.174 12.174 0 008.626-4.49c.047-.07.118-.141.165-.211l23.27-32.508a4.686 4.686 0 00-1.078-6.558zM72.797 98.676a3.454 3.454 0 00-2.515-.964 3.419 3.419 0 00-2.445 1.081 11.788 11.788 0 01-8.556 3.878c-4.513 0-8.744-2.915-11.118-7.522h13.939a3.5 3.5 0 000-7H46.235c-.023-.47-.047-.94-.047-1.387q0-.846.071-1.692h15.843a3.5 3.5 0 000-7H48.327c2.421-4.49 6.488-7.216 10.954-7.216a11.918 11.918 0 018.556 3.878 3.508 3.508 0 105.077-4.842 18.784 18.784 0 00-13.634-6.073c-8.133 0-15.514 5.688-18.593 14.221H34.88a3.5 3.5 0 100 7h4.372c-.047.564-.047 1.128-.047 1.692 0 .447.023.917.047 1.387h-4.325a3.5 3.5 0 000 7h5.688c3.009 8.72 10.436 14.526 18.71 14.526a18.784 18.784 0 0013.633-6.064 3.453 3.453 0 00.964-2.515 3.548 3.548 0 00-1.125-2.388z" fill="#ff9737"/></svg>