<svg xmlns="http://www.w3.org/2000/svg" xmlns:xlink="http://www.w3.org/1999/xlink" width="186.611" height="44.933" viewBox="0 0 186.611 44.933"><defs><linearGradient id="b" x1=".5" y1="-.008" x2=".5" y2="1.003" gradientUnits="objectBoundingBox"><stop offset="0" stop-color="#f3852c"/><stop offset="1" stop-color="#e8582f"/></linearGradient><linearGradient id="a" x1="1.891" y1="-.96" x2=".078" y2=".944" gradientUnits="objectBoundingBox"><stop offset=".25" stop-color="#f3852c" stop-opacity="0"/><stop offset=".302" stop-color="#b9621e" stop-opacity=".251"/><stop offset=".37" stop-color="#804010" stop-opacity=".498"/><stop offset=".437" stop-color="#5e2b08" stop-opacity=".651"/><stop offset=".502" stop-color="#532506" stop-opacity=".698"/><stop offset=".564" stop-color="#692c0c" stop-opacity=".592"/><stop offset=".666" stop-color="#a8421d" stop-opacity=".302"/><stop offset=".75" stop-color="#e8582f" stop-opacity="0"/></linearGradient><linearGradient id="c" x1=".915" y1=".063" x2="-.898" y2="1.967" xlink:href="#a"/></defs><g><path fill="#fff" d="M69.773 34.542h-6.1V11.793h6.051v1.274a11.4 11.4 0 015.687-1.82q4.549 0 6.279 2.684t1.729 8.281v12.33h-6.1V22.394a10.239 10.239 0 00-.682-4.3 2.741 2.741 0 00-2.73-1.388 10.316 10.316 0 00-3.594.637l-.547.182zM94.956 28.786a4.529 4.529 0 003.071.933q4.231 0 7.553-.273l1.274-.136.091 4.5a40.4 40.4 0 01-9.463 1.273q-5.142 0-7.462-2.729t-2.32-8.872q0-12.24 10.055-12.239 9.919 0 9.919 10.283l-.455 4.231H93.841a3.937 3.937 0 001.115 3.029zm6.711-7.666a6.222 6.222 0 00-.864-3.8 4.77 4.77 0 00-6.074.045 6.3 6.3 0 00-.933 3.754zM109.857 11.793h6.506l3.64 7.052 3.685-7.052h6.506l-6.46 11.147 6.46 11.6h-6.506l-3.685-6.961-3.64 6.961h-6.506l6.233-11.42zM133.606 8.882V2.694h6.1v6.188zm0 25.661v-22.75h6.1v22.749zM146.573 14.363q2.411-3.115 8.053-3.116t8.053 3.116q2.412 3.118 2.411 8.759 0 11.967-10.464 11.966t-10.465-11.966q0-5.641 2.412-8.759zm4.709 13.9a4.233 4.233 0 006.688 0 10.8 10.8 0 00.933-5.142 10.52 10.52 0 00-.933-5.1 4.308 4.308 0 00-6.688 0 10.512 10.512 0 00-.932 5.1 10.8 10.8 0 00.932 5.143zM185.882 17.481a72.5 72.5 0 00-7.893-.728 6.518 6.518 0 00-2.912.409 1.413 1.413 0 00-.66 1.3 1.235 1.235 0 00.887 1.229 34.665 34.665 0 004.55 1 10.012 10.012 0 015.209 2.162q1.547 1.5 1.547 4.868 0 7.371-9.145 7.371a39.649 39.649 0 01-7.28-.819l-1.456-.272.182-5.1a72.586 72.586 0 007.848.728 7.044 7.044 0 003-.432 1.393 1.393 0 00.8-1.3 1.342 1.342 0 00-.842-1.274 21.724 21.724 0 00-4.367-1 11.258 11.258 0 01-5.256-2q-1.727-1.409-1.727-5.025a6.393 6.393 0 012.457-5.459 10.257 10.257 0 016.324-1.843 42.5 42.5 0 017.326.865l1.5.272z"/></g><path d="M44.934 4.3c0-.142-.008-.283-.021-.424-.006-.064-.019-.126-.027-.19s-.02-.151-.035-.226-.034-.142-.052-.213-.031-.131-.05-.2-.047-.136-.071-.2-.045-.13-.071-.194-.057-.124-.086-.185-.06-.132-.094-.2-.068-.116-.1-.173-.074-.127-.114-.188-.089-.123-.135-.183l-.116-.155a4.326 4.326 0 00-.28-.31v-.005q-.148-.148-.31-.28c-.05-.042-.1-.078-.155-.116s-.12-.092-.183-.134S42.9.647 42.832.61s-.113-.07-.171-.1-.131-.064-.2-.095-.118-.061-.181-.087-.13-.048-.195-.072-.134-.05-.2-.071-.131-.034-.2-.05l-.211-.052c-.072-.017-.153-.024-.23-.035s-.123-.021-.186-.027a4.386 4.386 0 00-.849 0c-.063.006-.124.018-.186.027s-.154.02-.23.035-.141.034-.211.052-.132.031-.2.05-.136.047-.2.071-.13.045-.194.071-.123.057-.184.085-.132.06-.2.095-.115.068-.172.1-.127.073-.189.114-.123.09-.184.136l-.154.115c-.109.09-.215.185-.315.285L22.467 16.385 7.344 1.262A3.785 3.785 0 006.887.87c-.066-.05-.131-.1-.2-.147S6.569.651 6.509.615s-.12-.074-.182-.107S6.2.446 6.138.417s-.127-.063-.193-.09-.123-.046-.186-.068S5.62.207 5.548.185 5.423.153 5.36.137 5.215.1 5.14.083 4.994.06 4.921.05s-.13-.022-.2-.028Q4.519 0 4.313 0h-.02c-.139 0-.278.008-.417.021-.064.007-.127.019-.19.027s-.151.02-.226.035-.14.034-.21.052-.132.031-.2.05-.134.047-.2.07-.132.045-.2.072-.121.056-.181.084-.135.061-.2.1l-.167.1c-.056.034-.131.075-.194.118S1.8.81 1.737.854s-.11.078-.163.122c-.1.082-.194.168-.286.258l-.028.026-.03.033c-.089.09-.174.183-.254.281-.045.054-.083.111-.125.167s-.086.112-.126.171-.081.132-.12.2-.066.108-.1.163-.066.136-.1.2-.057.116-.082.176-.05.136-.074.2-.048.128-.068.194-.036.139-.054.208-.035.132-.049.2-.02.17-.032.247c-.008.057-.019.113-.024.17A4.571 4.571 0 000 4.3v36.403c0 .059.005.119.009.178s.007.14.015.21a4.292 4.292 0 007.148 2.734l.008.008.158-.158 15.129-15.126 15.284 15.284.008-.008a4.292 4.292 0 007.148-2.735c.008-.068.01-.137.014-.206s.008-.121.009-.181v-.091zM8.6 30.251V14.684l7.784 7.784zm27.733-15.567v15.567l-7.784-7.784z" fill="url(#b)"/><path d="M1.1 66.005l.008.008a4.295 4.295 0 006.066 6.066l.008.008.158-.158L22.47 56.8l-6.082-6.08z" transform="translate(-.002 -28.253)" fill="url(#a)"/><path d="M71.929 7.345a4.3 4.3 0 00-6.082-6.082L50.723 16.387l6.077 6.082z" transform="translate(-28.255 -.002)" fill="url(#c)"/></svg>