<svg xmlns="http://www.w3.org/2000/svg" width="985.107" height="985.107" viewBox="0 0 985.107 985.107"><g opacity=".07" fill="#005167"><path d="M146.229 461.769a86.3 86.3 0 0060.03-24.243l84.85 42.521a97.91 97.91 0 00-.77 10.775 86.582 86.582 0 10164.7-37.326l115.439-115.442a86.57 86.57 0 00123.908-78.116 83.369 83.369 0 00-4.041-25.974l100.242-75.23a85.382 85.382 0 0047.909 14.623 86.712 86.712 0 0086.582-86.582C925.078 39.058 886.597 0 838.881 0a86.712 86.712 0 00-86.582 86.582 83.37 83.37 0 004.04 25.975l-100.242 75.23a85.383 85.383 0 00-47.909-14.623 86.57 86.57 0 00-78.116 123.908L414.629 412.514a86.472 86.472 0 00-97.356 15.777l-84.844-42.521a97.912 97.912 0 00.77-10.775 86.582 86.582 0 10-86.97 86.774zM838.881 57.721a28.861 28.861 0 11-28.861 28.861 28.822 28.822 0 0128.861-28.861zM607.996 230.885a28.861 28.861 0 11-28.861 28.861 28.822 28.822 0 0128.861-28.861zM377.112 461.769a28.861 28.861 0 11-28.861 28.861 28.822 28.822 0 0128.861-28.861zM146.229 346.327a28.861 28.861 0 11-28.86 28.861 28.822 28.822 0 0128.86-28.861zm0 0"/><path d="M956.247 927.387h-30.785v-609.92a28.822 28.822 0 00-28.862-28.861H781.159a28.822 28.822 0 00-28.859 28.861v609.92h-57.722V490.63a28.822 28.822 0 00-28.86-28.861H550.275a28.822 28.822 0 00-28.86 28.861v436.757h-57.722V721.515a28.822 28.822 0 00-28.861-28.861H319.39a28.822 28.822 0 00-28.861 28.861v205.872h-57.72V606.072a28.822 28.822 0 00-28.861-28.86H88.506a28.822 28.822 0 00-28.861 28.86v321.315H28.861a28.861 28.861 0 000 57.721h927.386a28.861 28.861 0 000-57.721zM810.02 346.327h57.721v581.06H810.02zM579.135 519.491h57.721v407.9h-57.721zM348.251 750.375h57.721v177.012h-57.721zM117.366 634.933h57.721v292.454h-57.721zm0 0"/></g></svg>