<svg xmlns="http://www.w3.org/2000/svg" width="993.829" height="1071.51" viewBox="0 0 993.829 1071.51"><g opacity=".07" fill="#005167"><path d="M714.34 364.934h-46.588v-136.85C667.752 102.3 563.125 0 434.815 0S201.879 102.3 201.879 228.084v136.85h-46.588C69.687 364.934 0 434.621 0 520.226v395.992c0 85.6 69.687 155.291 155.291 155.291h306.7a38.823 38.823 0 000-77.646h-306.7a77.624 77.624 0 01-77.646-77.646V520.226a77.624 77.624 0 0177.646-77.646H714.34a77.624 77.624 0 0177.646 77.646v155.291a38.823 38.823 0 0077.646 0V520.226c-.001-85.605-69.688-155.292-155.292-155.292zm-124.233 0H279.524v-136.85c0-82.887 69.687-150.438 155.291-150.438S590.107 145.2 590.107 228.084z"/><path d="M977.559 709.876a38.81 38.81 0 00-54.158 8.929l-191.4 267.3a22.252 22.252 0 01-32.025 1.552l-67.552-65.033a38.847 38.847 0 10-54.352 55.516l67.746 65.417.388.388a100.219 100.219 0 0068.91 27.564c2.135 0 4.464 0 6.6-.194a100.534 100.534 0 0071.24-37.076c.388-.582.971-1.164 1.359-1.746l192.173-268.46c12.617-17.276 8.536-41.54-8.929-54.157zM601.171 814.891a28.52 28.52 0 00-20.77-7.959 28.234 28.234 0 00-20.188 8.929c-19.606 20.77-44.84 32.029-70.657 32.029-37.27 0-72.211-24.07-91.816-62.116h115.11a28.923 28.923 0 000-57.846H381.822c-.194-3.882-.388-7.765-.388-11.452q0-6.988.583-13.976h130.832a28.923 28.923 0 100-57.846H399.098c19.994-37.076 53.576-59.593 90.457-59.593 25.817 0 50.858 11.453 70.657 32.029a28.97 28.97 0 0041.93-39.989c-30.67-32.223-70.657-50.081-112.586-50.081-67.164 0-128.115 46.975-153.544 117.439h-47.947a28.923 28.923 0 100 57.846h36.105c-.388 4.659-.388 9.318-.388 13.977 0 3.688.194 7.57.388 11.452h-35.717a28.923 28.923 0 000 57.846h46.976c24.847 72.016 86.187 119.962 154.515 119.962 41.928 0 81.916-17.858 112.586-50.081a28.518 28.518 0 007.959-20.77 29.3 29.3 0 00-9.318-19.8z"/></g></svg>